<svg width="96" height="96" viewBox="0 0 96 96" fill="none" xmlns="http://www.w3.org/2000/svg" role="img" aria-labelledby="title desc">
  <title id="title">HobbyTrack app icon</title>
  <desc id="desc">A rounded-square app icon with a simple four-tile hobby and progress grid.</desc>

  <rect x="4" y="4" width="88" height="88" rx="24" fill="#F7FAF8" stroke="#1F3A3A" stroke-width="3"/>

  <rect x="22" y="22" width="24" height="24" rx="7" fill="#FFFFFF" stroke="#D9E4DF" stroke-width="2"/>
  <rect x="50" y="22" width="24" height="24" rx="7" fill="#FFFFFF" stroke="#D9E4DF" stroke-width="2"/>
  <rect x="22" y="50" width="24" height="24" rx="7" fill="#FFFFFF" stroke="#D9E4DF" stroke-width="2"/>
  <rect x="50" y="50" width="24" height="24" rx="7" fill="#FFFFFF" stroke="#D9E4DF" stroke-width="2"/>

  <path d="M34 28.6L36 32.5L40.3 33.1L37.2 36.1L37.9 40.4L34 38.4L30.1 40.4L30.8 36.1L27.7 33.1L32 32.5L34 28.6Z" fill="#137C7A"/>

  <path d="M57.1 35.9C57.1 33.3 59.1 31.6 61.6 31.6H63.4C65.9 31.6 67.9 33.3 67.9 35.9V37.1C67.9 38.6 66.7 39.8 65.3 39.8C64.3 39.8 63.4 39.3 63 38.4H62C61.6 39.3 60.7 39.8 59.7 39.8C58.3 39.8 57.1 38.6 57.1 37.1V35.9Z" stroke="#1F3A3A" stroke-width="2" stroke-linecap="round" stroke-linejoin="round"/>
  <path d="M60.5 35.6H59M59.75 34.85V36.35M65.4 35.2H65.45M63.9 36.6H63.95" stroke="#1F3A3A" stroke-width="1.7" stroke-linecap="round"/>

  <path d="M27.2 57.3C27.2 56.5 27.8 55.9 28.6 55.9H32.1C33.1 55.9 34 56.3 34.7 57C35.4 56.3 36.3 55.9 37.3 55.9H40.8C41.6 55.9 42.2 56.5 42.2 57.3V68.5H37.3C36.3 68.5 35.4 68.9 34.7 69.6C34 68.9 33.1 68.5 32.1 68.5H27.2V57.3Z" stroke="#1F3A3A" stroke-width="2" stroke-linejoin="round"/>
  <path d="M34.7 57V69.6" stroke="#1F3A3A" stroke-width="2" stroke-linecap="round"/>

  <path d="M56.8 62.2L60.7 66.1L68.8 57.2" stroke="#137C7A" stroke-width="3" stroke-linecap="round" stroke-linejoin="round"/>
</svg>
